<svg viewBox="0 0 70 70" xmlns="http://www.w3.org/2000/svg" xmlns:xlink="http://www.w3.org/1999/xlink"><clipPath id="a"><path d="m0 0h70v70h-70z"/></clipPath><clipPath id="b"><path d="m0 0h70v70h-70z"/></clipPath><g clip-path="url(#a)"><path d="m70 35c0 19.33-15.67 35-35 35s-35-15.67-35-35 15.67-35 35-35 35 15.67 35 35"/></g><g clip-path="url(#b)" fill="none"><g fill="#25f4ee"><path d="m30.35 30v-1.9c-7.88-1.08-15.14 4.43-16.22 12.31-.73 5.35 1.59 10.67 6.02 13.76-5.4-5.84-5.04-14.95.8-20.35 2.57-2.37 5.91-3.73 9.4-3.82"/><path d="m30.7 50.98c3.55-.02 6.46-2.83 6.61-6.38l.03-31.33h5.68v-.05c-.13-.66-.19-1.32-.19-1.99h-7.83v31.38c-.14 3.62-3.18 6.46-6.81 6.33-.99-.04-1.95-.29-2.83-.75 1.23 1.73 3.21 2.77 5.34 2.78"/><path d="m53.72 23.97v-1.84c-2.11 0-4.17-.61-5.93-1.76 1.54 1.81 3.62 3.07 5.93 3.6"/></g><path d="m47.79 20.36c-1.73-1.98-2.68-4.52-2.68-7.14h-2.13c.56 2.94 2.3 5.52 4.81 7.14" fill="#fe2c55"/><path d="m28.41 35.73c-3.65-.02-6.61 2.92-6.63 6.57-.01 2.48 1.37 4.76 3.58 5.9-2.13-2.93-1.49-7.03 1.44-9.16 1.68-1.23 3.85-1.58 5.84-.95v-7.99c-.64-.09-1.29-.14-1.94-.14-.11 0-.23 0-.34 0h-.03l-.02 6.05c-.61-.19-1.25-.28-1.89-.28" fill="#fe2c55"/><path d="m53.72 23.87h-.04s0 6.04 0 6.04c-3.91 0-7.73-1.25-10.9-3.54v16c-.02 7.96-6.49 14.39-14.45 14.37-2.92 0-5.78-.9-8.18-2.57 5.41 5.83 14.52 6.17 20.35.76 2.94-2.73 4.61-6.56 4.6-10.57v-15.92c3.17 2.28 6.99 3.51 10.89 3.5v-7.83c-.77 0-1.53-.08-2.28-.24" fill="#fe2c55"/><path d="m42.82 42.37v-15.91c3.17 2.28 6.99 3.51 10.89 3.5v-6.09c-2.3-.5-4.39-1.73-5.93-3.51-2.5-1.63-4.23-4.21-4.78-7.14h-5.73v31.38c-.15 3.63-3.19 6.46-6.82 6.32-2.03-.07-3.91-1.08-5.09-2.73-3.22-1.68-4.46-5.66-2.78-8.88 1.14-2.17 3.38-3.53 5.83-3.53.66 0 1.31.1 1.94.3v-6.14c-7.95.18-14.25 6.78-14.06 14.73.08 3.53 1.46 6.91 3.86 9.49 6.51 4.57 15.49 2.99 20.06-3.52 1.7-2.43 2.61-5.32 2.61-8.28" fill="#fff"/></g></svg>