<svg xmlns="http://www.w3.org/2000/svg" viewBox="0 0 119.74 119.74"><defs><style>.cls-1{fill:#1877f2;}.cls-2{fill:#fff;}</style></defs><g><g><path class="cls-1" d="M119.74,59.87A59.87,59.87,0,1,0,50.51,119V77.17H35.31V59.87h15.2V46.68c0-15,8.94-23.29,22.62-23.29a92,92,0,0,1,13.4,1.17V39.29H79c-7.44,0-9.76,4.61-9.76,9.35V59.87H85.83l-2.66,17.3h-14V119A59.89,59.89,0,0,0,119.74,59.87Z"/><path class="cls-2" d="M83.17,77.17l2.66-17.3H69.22V48.64c0-4.74,2.32-9.35,9.76-9.35h7.55V24.56a92,92,0,0,0-13.4-1.17c-13.68,0-22.62,8.28-22.62,23.29V59.87H35.31v17.3h15.2V119a60.31,60.31,0,0,0,18.71,0V77.17Z"/></g></g></svg>