<svg viewBox="0 0 60 60" xmlns="http://www.w3.org/2000/svg" xmlns:xlink="http://www.w3.org/1999/xlink"><linearGradient id="a" gradientTransform="matrix(60 0 0 -60 54811 33751)" gradientUnits="userSpaceOnUse" x1="-913.36" x2="-912.67" y1="561.59" y2="562.44"><stop offset="0" stop-color="#f40001"/><stop offset="1" stop-color="#b901b3"/></linearGradient><circle cx="30" cy="30" fill="url(#a)" r="30"/><g fill="#fff"><path d="m30 15.24c4.81 0 5.38.02 7.27.1 1.14.01 2.27.22 3.34.62 1.57.61 2.81 1.85 3.42 3.42.4 1.07.61 2.2.62 3.34.09 1.9.1 2.47.1 7.27s-.02 5.38-.1 7.27c-.01 1.14-.22 2.27-.62 3.34-.61 1.57-1.85 2.81-3.42 3.42-1.07.4-2.2.61-3.34.62-1.9.09-2.47.1-7.27.1s-5.38-.02-7.27-.1c-1.14-.01-2.27-.22-3.34-.62-1.57-.61-2.81-1.85-3.42-3.42-.4-1.07-.61-2.2-.62-3.34-.09-1.9-.1-2.47-.1-7.27s.02-5.38.1-7.27c.01-1.14.22-2.27.62-3.34.61-1.57 1.85-2.81 3.42-3.42 1.07-.4 2.2-.61 3.34-.62 1.9-.09 2.47-.1 7.27-.1m0-3.24c-4.89 0-5.5.02-7.42.11-1.49.03-2.97.31-4.37.84-2.42.93-4.33 2.85-5.26 5.26-.52 1.4-.81 2.88-.84 4.37-.09 1.92-.11 2.53-.11 7.42s.02 5.5.11 7.42c.03 1.49.31 2.97.84 4.37.93 2.42 2.85 4.33 5.26 5.26 1.4.52 2.88.81 4.37.84 1.92.09 2.53.11 7.42.11s5.5-.02 7.42-.11c1.49-.03 2.97-.31 4.37-.84 2.42-.93 4.33-2.85 5.26-5.26.52-1.4.81-2.88.84-4.37.09-1.92.11-2.53.11-7.42s-.02-5.5-.11-7.42c-.03-1.49-.31-2.97-.84-4.37-.93-2.42-2.85-4.33-5.26-5.26-1.4-.52-2.88-.81-4.37-.84-1.92-.09-2.53-.11-7.42-.11z"/><path d="m30 20.76c-5.1 0-9.24 4.14-9.24 9.24s4.14 9.24 9.24 9.24 9.24-4.14 9.24-9.24c0-5.1-4.14-9.24-9.24-9.24zm0 15.24c-3.31 0-6-2.69-6-6s2.69-6 6-6 6 2.69 6 6-2.69 6-6 6z"/><circle cx="39.61" cy="20.39" r="2.16"/></g></svg>